<?xml version="1.0" encoding="UTF-8" standalone="no"?>
<!-- Created with Inkscape (http://www.inkscape.org/) -->

<svg
   width="600"
   height="480"
   viewBox="0 0 158.75 127"
   version="1.1"
   id="svg5"
   xml:space="preserve"
   sodipodi:docname="anzoategui.svg"
   inkscape:version="1.2.2 (b0a8486541, 2022-12-01)"
   xmlns:inkscape="http://www.inkscape.org/namespaces/inkscape"
   xmlns:sodipodi="http://sodipodi.sourceforge.net/DTD/sodipodi-0.dtd"
   xmlns="http://www.w3.org/2000/svg"
   xmlns:svg="http://www.w3.org/2000/svg"><sodipodi:namedview
     id="namedview7"
     pagecolor="#505050"
     bordercolor="#ffffff"
     borderopacity="1"
     inkscape:showpageshadow="0"
     inkscape:pageopacity="0"
     inkscape:pagecheckerboard="1"
     inkscape:deskcolor="#505050"
     inkscape:document-units="mm"
     showgrid="false"
     inkscape:zoom="0.47"
     inkscape:cx="542.55319"
     inkscape:cy="81.914894"
     inkscape:window-width="1366"
     inkscape:window-height="732"
     inkscape:window-x="0"
     inkscape:window-y="0"
     inkscape:window-maximized="1"
     inkscape:current-layer="g6765" /><defs
     id="defs2"><clipPath
       clipPathUnits="userSpaceOnUse"
       id="clipPath1754"><path
         style="fill:#ffffff;fill-opacity:1;stroke-width:0.769763;stroke-dasharray:none;paint-order:stroke markers fill;stop-color:#000000"
         id="path1756"
         sodipodi:type="arc"
         sodipodi:cx="480.76306"
         sodipodi:cy="701.35248"
         sodipodi:rx="298.40924"
         sodipodi:ry="250.9801"
         sodipodi:start="3.3262452"
         sodipodi:end="3.2724662"
         sodipodi:arc-type="arc"
         d="M 187.42675,655.27128 A 298.40924,250.9801 0 0 1 531.60382,454.04178 298.40924,250.9801 0 0 1 775.46642,740.78382 298.40924,250.9801 0 0 1 437.84649,949.72344 298.40924,250.9801 0 0 1 184.90573,668.59951"
         sodipodi:open="true" /></clipPath><clipPath
       clipPathUnits="userSpaceOnUse"
       id="clipPath6621"><path
         style="fill:#000000;stroke-width:0.264583"
         d="m -33.679516,-45.851741 c -0.472951,-0.288359 -0.859901,-0.646851 -0.859901,-0.79665 0,-0.36507 -1.595589,-1.320681 -2.207231,-1.321919 -0.268079,-5.3e-4 -0.79016,-0.23912 -1.160159,-0.530162 -0.389469,-0.306358 -1.075459,-0.529849 -1.62923,-0.530799 -0.526081,-7.94e-4 -1.29754,-0.179491 -1.714349,-0.39687 -0.416822,-0.217389 -0.9526,-0.399031 -1.19063,-0.403661 -0.238022,-0.005 -0.66389,-0.18323 -0.946362,-0.396878 -0.28248,-0.213651 -0.860758,-0.388461 -1.285078,-0.388461 -0.594802,0 -0.734711,-0.0958 -0.610892,-0.41851 0.0883,-0.23019 0.1606,-0.629521 0.1606,-0.88741 0,-0.257889 0.30104,-0.8137 0.66898,-1.235131 0.925082,-1.059579 1.029362,-1.197948 1.78956,-2.374479 0.368742,-0.57068 0.97844,-1.359821 1.354902,-1.75365 0.37646,-0.39383 0.684469,-0.848 0.684469,-1.009269 0,-0.161272 0.35719,-0.593762 0.79375,-0.96111 0.436571,-0.367342 0.79375,-0.88841 0.79375,-1.15793 0,-0.269521 0.10591,-0.55548 0.23535,-0.635482 0.480811,-0.297159 0.803301,-3.620809 0.504941,-5.203978 -0.17554,-0.931461 0.396039,-1.640861 1.300668,-1.61431 0.405442,0.01191 1.421781,0.02569 2.25852,0.0308 0.836751,0.005 1.52136,0.127029 1.52136,0.271129 0,0.46365 1.151551,0.897789 2.645831,0.99749 3.447301,0.229991 3.669429,0.306289 3.962381,1.360979 0.147399,0.530672 0.268669,1.149411 0.269479,1.37496 0.002,0.57966 0.53831,1.04511 1.20401,1.04511 0.31214,0 0.79406,0.250312 1.07094,0.556252 0.27687,0.30594 0.8311,0.72572 1.23163,0.932839 0.42805,0.22135 0.72823,0.595741 0.72823,0.908259 0,0.29243 0.18158,0.80881 0.40351,1.147521 0.5268,0.804011 0.83766,3.69266 0.55812,5.186379 -0.0681,0.363802 -0.13371,0.802261 -0.14584,0.97436 -0.0399,0.566012 -1.08984,0.701341 -1.46463,0.18878 -0.30817,-0.421439 -0.46456,-0.436658 -1.45094,-0.141129 -1.45709,0.43656 -2.0364,1.0595 -2.269759,2.440699 -0.166812,0.987341 -0.114261,1.200521 0.398209,1.615491 0.3247,0.262919 0.79546,0.478049 1.04613,0.478049 0.68918,0 0.83004,0.280882 0.37103,0.739881 -0.2887,0.2887 -0.82793,0.393049 -1.79864,0.348091 -1.136729,-0.0527 -1.52468,0.0513 -2.15478,0.57731 -1.88278,1.571779 -3.566969,1.898608 -5.067929,0.983448 z m 18.719269,-5.75804 c 0,-0.109389 -0.51907,-0.47426 -1.15349,-0.81081 -0.63441,-0.336561 -1.40656,-0.954231 -1.71588,-1.372611 -0.48068,-0.650158 -0.69282,-0.739518 -1.45997,-0.615029 -0.8695,0.141099 -0.90303,0.113699 -1.07198,-0.875901 -0.0959,-0.561848 -0.21002,-1.591379 -0.25356,-2.287839 -0.0435,-0.69646 -0.21775,-1.404879 -0.38714,-1.574271 -0.16939,-0.169388 -0.30798,-0.534199 -0.30798,-0.810688 0,-0.772832 -2.46833,-3.023161 -3.66794,-3.343982 -0.52806,-0.141229 -0.73882,-0.445288 -0.98934,-1.427329 -0.17508,-0.686321 -0.31269,-1.334209 -0.30579,-1.439741 0.0191,-0.292219 -2.695661,-0.88333 -3.97227,-0.86492 l -1.130131,0.0163 0.66711,-1.316479 c 0.66344,-1.30923 0.881981,-2.65698 0.430832,-2.65698 -0.12995,0 -0.310312,-0.19294 -0.400812,-0.42876 -0.12917,-0.336621 -0.0412,-0.39651 0.409421,-0.27867 0.315669,0.0825 1.145749,0.0181 1.844609,-0.143211 1.215012,-0.280461 1.38244,-0.244099 3.822481,0.830231 4.64473,2.045039 6.73095,3.179799 6.73853,3.66531 0.0136,0.872548 1.47347,2.2728 2.81069,2.695929 l 1.28323,0.406051 0.0764,2.46883 c 0.0672,2.172988 0.16233,2.59783 0.79375,3.545308 1.98957,2.985431 2.20822,4.12428 1.05717,5.506321 -0.66556,0.799121 -3.1179,1.674489 -3.1179,1.11294 z m 3.93037,-4.348991 c -0.18803,-0.733668 -0.49859,-1.394079 -0.69013,-1.46758 -0.76331,-0.29291 -1.35519,-2.176108 -1.41081,-4.488799 l -0.0546,-2.26886 3.9005404,-2.20807 c 3.1143398,-1.763019 3.99855,-2.155621 4.3868398,-1.94782 0.2674602,0.143139 0.78872,0.26026 1.1583501,0.26026 0.70017,0 1.23156,-0.730441 1.57519,-2.16525 0.0935,-0.390519 0.51927,-0.958691 0.94609,-1.26261 l 0.77603001,-0.55259 0.16382,1.262621 c 0.28936,2.230138 0.38988,2.51356 0.83134999,2.344158 0.22532001,-0.0865 0.54776,-0.0702 0.71653,0.0361 0.16877,0.10631 1.48513,0.154038 2.9252401,0.106048 2.47108,-0.0823 2.6053799,-0.0597 2.3870698,0.40287 -0.1272199,0.269571 -0.2217298,1.059072 -0.2100099,1.75445 0.0301,1.783752 0.64388,2.320401 4.0218897,3.516222 2.78027,0.984229 3.20911,1.23834 3.21715,1.906278 0.003,0.250031 -0.15999,0.229341 -0.63252,-0.0803 -0.5991,-0.392552 -0.66138,-0.381651 -1.05833,0.185068 -0.23197,0.331182 -0.42177,0.731872 -0.42177,0.890402 0,0.26284 -1.3886,1.446099 -1.6970498,1.446099 -0.072,0 -0.44064,-0.309671 -0.8191299,-0.68816 -0.58797,-0.58797 -0.8304601,-0.661379 -1.6656701,-0.50428 -0.5376399,0.101129 -1.8313598,0.213741 -2.8749299,0.25024 -1.5989001,0.0559 -2.02533,0.174009 -2.71055,0.750581 -0.44723,0.376319 -1.08167999,0.765789 -1.40988,0.865499 -0.32820999,0.0997 -0.96781998,0.459071 -1.42136,0.79859 -0.45354,0.339521 -1.54455,0.783619 -2.42447,0.986909 -1.34254,0.310152 -1.7351901,0.312692 -2.4413101,0.01579 -0.7103499,-0.29868 -0.9244798,-0.29565 -1.3743599,0.0195 -0.3257399,0.228161 -0.8702299,0.318521 -1.4006401,0.23245 -0.6489798,-0.10532 -1.0037498,-0.005 -1.4072302,0.398671 l -0.53949,0.539488 -0.34188,-1.333949 z m -2.36492,-9.131358 c -0.0641,-1.38449 -0.229,-1.804961 -0.95413,-2.433431 -1.18545,-1.027419 -2.98974,-3.62812 -2.32527,-3.351631 0.60183,0.250442 0.75644,0.27676 3.9629,0.674622 3.0711702,0.381079 5.1051204,0.757049 6.0296204,1.11457 0.73763,0.285258 0.7371299,0.28583 -1.1906301,1.382199 -5.4103303,3.076991 -5.4990803,3.118999 -5.5224903,2.613671 z m -1.83004,-0.124071 c -0.97642,-0.276079 -2.0911,-1.385311 -2.10715,-2.096831 -0.0129,-0.57118 -0.67886,-1.125548 -2.25847,-1.87996 -1.27521,-0.609028 -1.32065,-0.668649 -1.25994,-1.653238 0.0346,-0.561782 0.11302,-1.071481 0.17419,-1.132642 0.0612,-0.0612 0.65841,-0.0292 1.32721,0.0711 1.16773,0.175109 1.28162,0.275518 2.86852,2.528988 0.90889,1.290651 1.80135,2.348621 1.98325,2.35104 0.1819,0.0021 0.34403,0.0937 0.3603,0.202832 0.18176,1.219499 0.19399,1.913998 0.0334,1.894369 -0.10737,-0.0131 -0.61194,-0.14169 -1.12127,-0.2857 z m 10.4302703,-3.611991 c -0.9317299,-0.544859 -2.1725501,-0.96279 -3.9479799,-1.32973 -1.5633604,-0.323109 -5.5609804,-0.834138 -6.5252404,-0.834138 -0.37233,0 -1.09199,-0.281652 -1.59926,-0.625891 -0.95308,-0.646779 -3.5329,-1.12999 -4.0858,-0.765291 -0.16723,0.11031 -0.34583,0.49608 -0.39687,0.857271 -0.0737,0.521049 -0.2382,0.28889 -0.79662,-1.12394 l -0.70379,-1.780651 0.80522,-0.630179 c 0.88377,-0.69165 0.8002,-1.222981 -0.19234,-1.222981 h -0.63118 l 0.56112,-1.35019 c 0.45136,-1.086098 0.50024,-1.44766 0.24992,-1.848498 -0.48438,-0.775621 -0.36923,-1.71791 0.30987,-2.535701 0.34159,-0.41135 0.69089,-1.191921 0.77622,-1.73461 0.15027,-0.955559 0.12439,-0.995231 -0.8195,-1.2567 -1.72471,-0.477771 -1.75407,-0.58711 -0.53981,-2.010219 0.61129,-0.716442 1.90735,-2.136061 2.88012,-3.154712 1.46098,-1.529869 1.92185,-2.243339 2.64912,-4.101039 0.84826,-2.16675 1.21383,-2.737699 1.60007,-2.499 0.0996,0.0616 0.3144,-0.0487 0.47733,-0.245031 0.40206,-0.484449 1.53736,-0.230328 1.69692,0.379831 0.15771,0.60307 -0.52667,0.87417 -1.55514,0.61604 l -0.72528,-0.182031 0.17155,1.251622 c 0.19911,1.452639 0.336,1.7369 0.83641,1.7369 0.20071,0 0.72969,0.33316 1.1755,0.740349 0.62216,0.568251 0.7381,0.81281 0.49881,1.052099 -0.17147,0.171472 -0.32052,0.885172 -0.33122,1.586 -0.0175,1.14908 0.11445,1.442561 1.34388,2.987982 l 1.36334,1.713749 -1.59112,1.428771 c -1.56317,1.403678 -1.58883,1.4492 -1.46013,2.59098 0.0758,0.672769 0.36674,1.413129 0.6908,1.758079 0.3079,0.32774 0.55981,0.915641 0.55981,1.306439 0,0.80156 0.0693,0.833702 0.87157,0.404331 1.13683,-0.60842 2.3421404,-0.501341 3.3510104,0.297701 0.5203698,0.412149 1.2416899,0.79103 1.6029199,0.84196 0.3612399,0.0509 0.67168,0.241429 0.6898701,0.423338 0.018201,0.181901 0.048,0.462521 0.0661,0.623621 0.018201,0.161081 0.19592,0.230399 0.3949502,0.154019 0.1990299,-0.0764 0.92637,0.327602 1.6163099,0.897731 0.6899299,0.57013 1.46501,1.036601 1.72239,1.036601 0.25738,0 0.61178,0.173299 0.78756001,0.385098 0.26123001,0.314761 0.14701999,0.53663 -0.62537001,1.2148 -0.56861,0.499242 -1.0554,1.239782 -1.22223,1.859362 -0.3617,1.343229 -0.9829199,1.680538 -1.99985,1.085858 z m -19.8229703,-2.718329 c -2.190329,-0.98524 -2.48022,-1.05179 -3.615619,-0.830001 -1.01887,0.19903 -1.299112,0.165502 -1.605301,-0.192109 -0.204031,-0.238281 -0.323731,-0.574899 -0.26602,-0.74804 0.0577,-0.173141 -0.0628,-0.650989 -0.267761,-1.061889 -0.30934,-0.620081 -0.31528,-0.912951 -0.0349,-1.722652 0.32562,-0.940528 0.30794,-1.003409 -0.492382,-1.751378 -0.733399,-0.685422 -0.865828,-0.72699 -1.136518,-0.356801 -0.377632,0.51644 -0.915831,0.22906 -0.915831,-0.489029 0,-0.406242 -0.12137,-0.492861 -0.515411,-0.36779 -0.385149,0.12224 -0.612958,-0.02371 -0.90138,-0.57749 -0.212278,-0.40758 -0.815628,-1.119492 -1.340779,-1.58202 -0.904369,-0.796531 -0.923149,-0.84545 -0.355391,-0.926042 0.463331,-0.0658 0.583991,-0.23527 0.53145,-0.746548 -0.13803,-1.34338 -0.124819,-2.028172 0.0758,-3.926401 0.223351,-2.11351 0.496411,-2.436151 1.626179,-1.921391 0.483831,0.22044 0.77125,0.226642 1.017911,0.02191 0.247499,-0.205412 0.39698,-0.199051 0.534029,0.0227 0.119952,0.194079 0.62307,0.25917 1.36062,0.17604 1.015312,-0.11444 1.224471,-0.0492 1.579372,0.492411 0.224978,0.343368 0.724628,0.783809 1.110319,0.978749 2.22408,1.124109 2.41133,1.314799 2.41701,2.4613 0.005,1.094679 -0.81572,1.818881 -1.973899,1.740879 -1.012902,-0.0682 -1.726221,0.666401 -1.726221,1.777751 0,0.356341 -0.203351,0.872601 -0.451901,1.147239 -0.36572,0.404111 -0.39062,0.584692 -0.130609,0.94688 0.17671,0.246142 0.389761,0.626121 0.47343,0.844402 0.52787,1.377069 0.675751,1.5875 1.115621,1.5875 0.268798,0 0.76835,0.297659 1.110128,0.661458 0.430461,0.458211 0.902512,0.661461 1.536241,0.661461 1.44386,0 2.54244,0.84945 3.16328,2.445941 0.2974,0.764788 0.62457,1.598879 0.72704,1.853538 0.25867,0.642882 0.0537,0.59485 -2.64844,-0.620609 z m -8.16447,-1.446721 c -0.564309,-0.487809 -0.934601,-1.00679 -0.83421,-1.169209 0.220681,-0.357069 -1.07876,-2.121271 -1.562439,-2.121271 -0.191251,0 -0.650462,-0.23813 -1.020461,-0.529169 -0.423799,-0.33337 -1.073351,-0.529169 -1.755471,-0.529169 -0.694489,0 -1.082749,-0.11956 -1.082749,-0.333431 0,-0.183391 -0.27242,-0.62987 -0.60539,-0.99219 -0.33296,-0.36231 -0.768411,-1.056061 -0.967669,-1.541661 -0.347861,-0.847749 -0.33165,-0.90795 0.406948,-1.51184 0.890741,-0.728268 1.537922,-0.795798 2.55284,-0.266359 1.223722,0.638371 2.813111,2.09254 3.140522,2.873341 0.192829,0.45988 0.45044,0.687848 0.678408,0.600369 0.226031,-0.0867 0.466521,0.119319 0.624641,0.535209 0.19766,0.51987 0.42512,0.665171 0.983721,0.628362 0.39963,-0.0263 0.875438,-0.0353 1.057339,-0.01979 0.3943,0.0334 0.434501,0.927262 0.0721,1.60432 -0.182909,0.341759 -0.13901,0.722841 0.149992,1.302149 0.224708,0.450451 0.329409,0.947082 0.232659,1.103622 -0.0968,0.156538 0.01021,0.490228 0.237569,0.741519 0.38336,0.423611 0.351301,0.458549 -0.4401,0.479639 -0.606978,0.01619 -1.14676,-0.230679 -1.8683,-0.854397 z m 8.44421,-2.386068 c -0.28225,-0.206391 -0.9025,-0.37525 -1.37834,-0.37525 -0.51474,0 -1.05835,-0.207352 -1.34211,-0.51194 -0.262321,-0.28157 -0.80274,-0.63581 -1.200941,-0.787202 -0.48115,-0.18293 -0.723979,-0.467339 -0.723979,-0.84795 0,-0.314978 -0.197591,-0.717169 -0.439079,-0.893759 -0.409051,-0.299101 -0.409051,-0.36393 0,-0.947931 0.241488,-0.344779 0.440899,-0.927799 0.443129,-1.295609 0.006,-1.021951 0.362339,-1.387139 1.260891,-1.292889 0.524539,0.055 1.012899,-0.0989 1.393539,-0.439322 l 0.58599,-0.524018 -0.17436,1.719789 c -0.16492,1.62656 -0.1267,1.79868 0.70491,3.175 0.94603,1.56569 1.65102,3.128819 1.4857,3.294139 -0.0562,0.0562 -0.33311,-0.0667 -0.61535,-0.273058 z m 0.0416,-2.182762 -1.26615,-2.575528 0.17972,-2.556751 0.17972,-2.556759 0.82185,0.13385 c 0.45201,0.0736 1.30938,0.256109 1.90525,0.405538 0.98243,0.246361 1.07141,0.33738 0.95457,0.97641 -0.0709,0.387591 -0.34212,1.009632 -0.6028,1.38231 -0.69392,0.992072 -0.87633,2.007802 -0.51655,2.876392 0.26758,0.645988 0.23508,0.951079 -0.20806,1.952868 -0.56669,1.281081 -0.40569,1.769182 0.58354,1.769182 0.52003,0 0.5202,0.005 0.0132,0.388469 -0.28247,0.213651 -0.57312,0.38645 -0.64588,0.384 -0.0728,-0.0021 -0.70206,-1.163439 -1.39844,-2.579981 z m -13.881249,-5.158669 c -0.47294,-0.15785 -0.859891,-0.41852 -0.859891,-0.57927 0,-0.57041 -1.088879,-1.450399 -1.796251,-1.45164 -0.67506,-0.0011 -2.69589,-1.521661 -2.705719,-2.03577 -0.0021,-0.116559 -0.121039,-0.39052 -0.26402,-0.608801 -0.214849,-0.327988 -0.411509,-0.218699 -1.133009,0.629661 l -0.87304,1.02653 -1.50527,-0.437589 c -1.80226,-0.523941 -2.501562,-1.463601 -2.024002,-2.719702 0.369202,-0.97105 0.59042,-1.08271 2.563842,-1.294048 1.34906,-0.144471 1.76385,-0.0961 2.146599,0.25028 0.26094,0.236148 0.545099,0.35869 0.631459,0.27233 0.0864,-0.0864 0.40404,-0.0786 0.70593,0.0172 0.430242,0.136552 0.494432,0.276011 0.29691,0.645081 -0.333528,0.623199 0.13476,1.0811 1.105612,1.0811 0.548108,0 0.812588,-0.1715 0.991939,-0.64322 0.19717,-0.518589 0.490701,-0.674979 1.514811,-0.80709 1.438108,-0.18551 2.0946,-0.483259 1.997908,-0.90614 -0.0432,-0.188881 0.483971,-0.269489 1.521362,-0.232651 0.873088,0.031 1.585608,0.120221 1.583378,0.19826 -0.009,0.321612 -0.42313,0.766562 -0.78917,0.84827 -0.508709,0.113562 -1.307309,4.772211 -1.009798,5.89067 0.113559,0.426932 0.178498,0.804201 0.144309,0.838391 -0.245401,0.245409 -1.53184,0.25582 -2.243889,0.0182 z m 13.096879,-3.012911 c -0.40019,-0.0606 -0.72761,-0.21001 -0.72761,-0.33197 0,-0.12197 -0.62508,-0.578969 -1.389061,-1.015558 -0.763979,-0.436591 -1.61099,-1.098661 -1.882238,-1.471271 -0.443381,-0.60906 -0.614841,-0.660789 -1.69809,-0.51231 -1.108731,0.151961 -1.189382,0.12483 -1.010261,-0.339929 0.107061,-0.277791 0.329509,-1.007951 0.494339,-1.622591 0.286271,-1.06756 0.321662,-1.097611 0.791541,-0.67237 0.463629,0.419581 0.66943,0.387569 3.585009,-0.55766 1.701221,-0.55154 3.628921,-1.2251 4.283761,-1.49679 0.65485,-0.271701 1.47407,-0.57263 1.82049,-0.668729 0.34643,-0.0961 1.29893,-0.578192 2.11667,-1.071301 1.37163,-0.827119 2.14826,-1.101719 2.14826,-0.7596 0,0.0761 -0.37964,1.058349 -0.84365,2.18282 -0.6876,1.666291 -1.23937,2.460501 -2.98285,4.293439 -1.17656,1.236922 -2.47792,2.69544 -2.89192,3.241141 -0.414,0.545711 -0.82789,0.974349 -0.91976,0.95255 -0.0919,-0.0218 -0.49445,-0.0892 -0.89463,-0.149871 z m -17.37217,-3.295269 c 0.255849,-0.478049 0.224131,-0.635939 -0.18913,-0.941501 -0.273079,-0.201919 -0.76441,-0.317148 -1.091829,-0.256069 -0.327422,0.0611 -0.59531,-7.94e-4 -0.59531,-0.137739 0,-0.14097 -0.860311,-0.211072 -1.984992,-0.161751 -1.252209,0.0549 -1.984758,-0.01439 -1.98438,-0.18774 2.65e-4,-0.15113 0.238742,-0.741849 0.529791,-1.312709 0.631251,-1.238171 0.62534,-1.19063 0.1479,-1.19063 -0.209691,0 -0.45216,-0.114721 -0.538811,-0.254932 -0.197699,-0.319878 0.789572,-1.332568 1.29912,-1.332568 0.208471,0 0.45113,-0.227121 0.539242,-0.504722 0.254699,-0.802508 0.870508,-0.85801 2.2049,-0.19871 1.05804,0.522761 1.41523,0.57777 2.406668,0.370641 0.828871,-0.17317 1.33916,-0.149619 1.771471,0.0817 0.347239,0.185838 1.010131,0.259609 1.54819,0.172289 0.83433,-0.13539 0.913019,-0.100489 0.694389,0.30802 -0.149638,0.279611 -0.151408,0.611121 -0.005,0.84333 0.327279,0.517311 0.310661,1.442241 -0.0474,2.637319 -0.27877,0.930431 -0.378201,1.003871 -1.574062,1.1625 -0.91485,0.121361 -1.422278,0.35466 -1.791038,0.82347 -0.282991,0.35977 -0.76948,0.654122 -1.08108,0.654122 -0.499412,0 -0.530122,-0.068 -0.259151,-0.57436 z m 8.503729,-0.131659 c -0.24208,-0.0974 -0.0947,-0.573392 0.528942,-1.707721 0.842359,-1.53225 0.853228,-1.592379 0.42341,-2.341309 -0.44042,-0.767392 -0.439872,-0.76894 0.33096,-0.938241 0.841859,-0.184899 0.896458,-0.358881 0.522218,-1.663809 -0.219088,-0.763902 -0.193878,-0.85353 0.204502,-0.727091 0.804508,0.255339 2.221159,-0.343601 3.11131,-1.31541 0.76523,-0.835441 0.92869,-0.907479 1.396359,-0.61541 0.29132,0.18193 0.518679,0.39638 0.50523,0.476551 -0.0809,0.482439 0.49383,1.086758 1.28049,1.34638 0.80033,0.264128 1.03978,0.22325 1.99437,-0.340492 l 1.08484,-0.64067 0.67763,0.628012 c 0.51349,0.47589 0.85789,0.58841 1.42181,0.46455 0.45719,-0.100412 0.74418,-0.0533 0.74418,0.122158 0,0.157081 0.26789,0.286052 0.59531,0.2866 0.52813,7.93e-4 0.49796,0.0603 -0.26723,0.52688 -0.88563,0.539981 -1.5624,0.79347 -7.14042,2.67448 -3.151891,1.062871 -3.25946,1.080291 -3.935881,0.63708 -0.572849,-0.375349 -0.735488,-0.392449 -0.922679,-0.097 -0.124989,0.197249 -0.22974,0.4777 -0.232769,0.623221 -0.01741,0.83471 -0.609222,2.248958 -0.94106,2.248958 -0.211442,0 -0.384442,0.11906 -0.384442,0.264581 0,0.277849 -0.43058,0.31574 -0.99708,0.0877 z m -15.340938,-1.563031 c -0.181901,-0.19494 -0.330732,-0.51425 -0.330732,-0.70957 0,-0.195321 -0.115938,-0.47107 -0.257659,-0.612791 -0.141711,-0.141708 -0.186269,-0.697569 -0.099,-1.235239 0.14768,-0.910011 0.194598,-0.952389 0.678788,-0.613249 1.04925,0.73492 1.207622,1.244709 0.75556,2.432079 -0.340688,0.894871 -0.476218,1.028909 -0.74694,0.73877 z m 12.54828,-0.298321 c -0.331412,-0.0857 -0.424572,-0.262448 -0.29758,-0.564618 0.10168,-0.24194 0.274778,-0.89594 0.38467,-1.453351 0.109889,-0.557411 0.3331,-1.14677 0.49602,-1.30969 0.16292,-0.16292 0.296219,-0.49779 0.296219,-0.744159 0,-0.662842 0.739151,-0.836372 1.054291,-0.24751 0.353488,0.660498 0.339058,0.801288 -0.0821,0.801288 -0.523571,0 -1.501331,1.147511 -1.501331,1.761982 0,0.29549 0.23813,0.752748 0.529169,1.016138 0.903992,0.818102 0.555901,1.111012 -0.879319,0.73992 z m 1.43279,-0.648499 c -0.519242,-0.656301 -0.59151,-0.935151 -0.390501,-1.506709 0.345961,-0.983742 1.639289,-0.98969 2.189131,-0.01011 0.32594,0.580691 0.333009,0.8241 0.0442,1.521351 -0.43026,1.03876 -1.01854,1.037299 -1.84282,-0.005 z m -1.94537,-2.138521 c -0.0807,-0.210169 -0.0404,-0.549928 0.0894,-0.75502 0.517369,-0.817248 0.280678,-1.029219 -0.959472,-0.85924 -0.781648,0.107141 -1.430919,0.0433 -1.851909,-0.18197 -0.493379,-0.264038 -0.932809,-0.281829 -1.839081,-0.0744 -1.110798,0.254188 -1.696739,-0.006 -0.79392,-0.35216 0.218282,-0.0838 0.39687,-0.39302 0.39687,-0.687242 0,-0.488299 0.114332,-0.51978 1.311,-0.36104 0.72105,0.0957 1.807591,0.34912 2.414521,0.56325 0.606931,0.214141 1.326669,0.38935 1.59942,0.38935 0.59532,0 0.643519,0.646491 0.13785,1.84912 -0.242321,0.5763 -0.40545,0.72802 -0.50469,0.4694 z m 3.24399,-0.822589 c 0,-0.20143 -0.243851,-0.676241 -0.541891,-1.05514 l -0.541901,-0.688909 0.653262,-0.163952 c 1.097108,-0.27536 1.57367,-0.0383 1.81796,0.90451 0.26443,1.02045 0.294338,0.966261 -0.659831,1.195171 -0.527381,0.126521 -0.727599,0.0738 -0.727599,-0.19168 z m -10.583331,-1.62822 c -0.39988,-0.228589 -0.50352,-0.381841 -0.262091,-0.387501 0.21966,-0.005 0.538771,-0.232579 0.709142,-0.505388 0.216799,-0.347142 0.513818,-0.456991 0.98969,-0.36603 0.816739,0.156128 0.869209,0.582369 0.14773,1.20011 -0.634831,0.543568 -0.730282,0.547108 -1.584471,0.0588 z m 18.78541,-0.99835 c -0.3638,-0.188039 -0.662089,-0.56271 -0.66287,-0.832609 -7.93e-4,-0.273161 -0.2781,-0.593082 -0.625509,-0.72159 -0.535861,-0.198231 -0.574561,-0.29056 -0.273751,-0.653021 0.31432,-0.37874 0.409919,-0.347419 0.92984,0.30462 0.51965,0.651701 0.70519,0.712589 1.79652,0.589579 1.00489,-0.11326 1.21632,-0.0621 1.21297,0.293352 -0.01,1.063148 -1.25764,1.598308 -2.3772,1.019669 z m -0.23885,-2.145651 c -0.24464,-0.29477 -0.15435,-0.387779 0.46469,-0.478629 0.54064,-0.0793 0.8569,0.0291 1.06723,0.365871 0.26247,0.42027 0.20581,0.478629 -0.46468,0.478629 -0.41998,0 -0.90023,-0.16464 -1.06724,-0.365871 z"
         id="path6623"
         sodipodi:nodetypes="cssscscssssssssssssscssscssssssssssssscscccsssscsssssscssscssssccsscccsccssssscscscscsssssssssssssssscccccsssssccsscsssccscccsssscscsscsssssssscssscsssscscscsssscscsssssscccsssccssssssssssssssscsssssssssscccssssssssssssccssccsccssssssscsccssssccccsscsssssccccsccsscsssssssssssscssscccssssssssssssssssccssssssssssssssscssssccccsssssscsscssssssssssscssssssssssssssssssscsssccscssccscssssssscssssscsssssssssssssscsss" /></clipPath></defs><g
     inkscape:label="Capa 1"
     inkscape:groupmode="layer"
     id="layer1"><g
       id="g6765"
       transform="matrix(0.50571942,0,0,0.50571942,162.68266,195.14402)"><path
         style="fill:#265ee1;fill-opacity:1;stroke:none;stroke-width:0.674046"
         d="m -177.88903,-364.49374 2.00216,3.404 c -9.00958,3.11122 -9.25655,11.89691 -18.68656,14.54588 -12.44052,3.49521 -23.22138,-4.69273 -35.37091,-4.78052 -2.92783,-0.0184 -9.30326,0.34904 -11.81258,1.82654 -3.98159,2.34401 -6.71978,7.35462 -11.54565,8.15119 -1.52553,2.89405 -3.48298,4.09702 -6.67374,3.40401 -1.41548,5.86301 1.33743,8.2097 1.79994,13.61587 0.36518,4.28155 -1.68647,7.05239 1.29533,10.88252 2.20639,2.83282 8.37431,7.14705 12.1316,4.92015 2.32377,-1.37726 3.92811,-4.76831 5.46183,-6.95233 3.10461,7.60725 8.30017,12.18218 16.68438,12.93513 l -8.00852,13.61592 c 4.40067,1.32894 4.00027,5.4307 6.66977,8.50111 3.57382,4.11067 10.5232,2.91314 14.68623,1.03007 2.3679,5.10734 5.87299,12.34079 10.07748,16.07355 5.31229,4.70979 10.51784,5.27485 13.2807,12.51987 l -6.65372,3.6695 -2.78961,6.3341 -7.241,-2.45084 -11.82195,0.34673 -5.77277,5.03582 3.5744,8.16955 -6.66837,19.74309 c -4.29787,0.72164 -4.81115,5.46003 -6.90872,8.7891 -3.57114,5.67102 -8.12528,6.87602 -8.44099,14.35799 -5.23883,0.0613 -7.39984,5.72548 -2.57072,8.9865 5.97238,4.04393 11.76516,2.70274 17.92043,5.52121 8.7139,3.98945 16.61698,11.81185 26.1678,14.5487 5.95296,1.70875 9.53679,-4.80647 13.87476,-7.54328 2.50268,-1.57941 5.2923,-0.70119 8.00854,-1.37515 2.80962,-0.70128 5.33899,-2.66199 8.0085,-3.79889 v -1.36157 c -2.00883,-0.60592 -5.31904,-0.18397 -6.84726,-1.77006 -4.37136,-4.56134 2.38917,-13.73166 6.84726,-15.13409 3.25672,-1.02804 5.57257,3.51963 9.27652,1.99473 3.47035,-1.42973 3.39026,-7.10757 7.43455,-7.41391 4.16443,-0.32 3.35025,4.09835 5.52592,6.29735 2.76296,2.79809 8.38221,4.72475 11.7992,7.17559 3.32351,-4.08479 8.3355,-2.45084 12.39987,-5.05823 3.29012,-2.11053 2.74954,-7.57051 5.87956,-10.01458 7.35449,-5.75272 17.218239,-0.59227 25.099989,-0.58544 l -1.3347,-5.44638 13.01377,-2.92747 4.42471,-5.82756 8.408961,-2.7777 4.818411,-5.01537 16.717791,2.18332 12.680189,-2.65515 v -0.68074 c -5.65271,-3.21004 -10.604639,-4.69685 -16.68444,-6.83189 -2.43596,-0.85569 -5.13211,-0.57188 -7.12754,-2.51139 -4.29791,-4.16918 -0.71408,-13.16526 1.78855,-17.20781 -5.73944,0.25129 -16.891292,4.73966 -21.990052,1.51004 -4.4047,-2.79338 -3.99756,-11.12832 -4.03759,-15.80676 -5.19891,-1.5284 -11.41885,-4.11951 -15.15613,-8.19882 -3.59051,-3.90986 -8.235429,-12.02283 -13.541139,-13.37012 -5.41903,-1.37731 -11.96602,2.95117 -16.68434,5.22985 -0.77415,-3.32571 0.84089,-7.21237 -0.24022,-10.21191 -1.17466,-3.25489 -6.15321,-6.12515 -4.68505,-10.12077 1.09453,-2.96076 5.24562,-2.9526 7.4079,-4.73289 2.40256,-1.97769 3.09668,-6.02707 3.52378,-8.97428 -8.28215,-4.71178 -8.92954,-15.81889 -11.3454,-24.50863 l -5.33904,0.68083 1.35477,-10.02273 5.9864,-5.63561 -20.6887,5.0658 -17.35172,-5.74659 0.66732,-4.76559 c -3.16336,-0.6706 -4.17104,-2.26978 -4.67161,-5.44638 l -8.00853,-3.40395"
         id="path5824"
         sodipodi:nodetypes="ccccsccccscccscccccccccccccccccccccccccsccccccccccscccccccccscccccccccc" /><path
         style="fill:none;fill-opacity:1;stroke:#0c1f49;stroke-width:1.5819;stroke-dasharray:none;stroke-opacity:1"
         d="m -175.5266,-366.07876 2.00216,3.404 c -9.00958,3.11122 -9.25655,11.89691 -18.68656,14.54588 -12.44052,3.49521 -23.22138,-4.69273 -35.37091,-4.78052 -2.92783,-0.0184 -9.30326,0.34904 -11.81258,1.82654 -3.98159,2.34401 -6.71978,7.35462 -11.54565,8.15119 -1.52553,2.89405 -3.48298,4.09702 -6.67374,3.40401 -1.41548,5.86301 1.33743,8.2097 1.79994,13.61587 0.36518,4.28155 -1.68647,7.05239 1.29533,10.88252 2.20639,2.83282 8.37431,7.14705 12.1316,4.92015 2.32377,-1.37726 3.92811,-4.76831 5.46183,-6.95233 3.10461,7.60725 8.30017,12.18218 16.68438,12.93513 l -8.00852,13.61592 c 4.40067,1.32894 4.00027,5.4307 6.66977,8.50111 3.57382,4.11067 10.5232,2.91314 14.68623,1.03007 2.3679,5.10734 5.87299,12.34079 10.07748,16.07355 5.31229,4.70979 10.51784,5.27485 13.2807,12.51987 l -6.65372,3.6695 -2.78961,6.3341 -7.241,-2.45084 -11.82195,0.34673 -5.77277,5.03582 3.5744,8.16955 -6.66837,19.74309 c -4.29787,0.72164 -4.81115,5.46003 -6.90872,8.7891 -3.57114,5.67102 -8.12528,6.87602 -8.44099,14.35799 -5.23883,0.0613 -7.39984,5.72548 -2.57072,8.9865 5.97238,4.04393 11.76516,2.70274 17.92043,5.52121 8.7139,3.98945 16.61698,11.81185 26.1678,14.5487 5.95296,1.70875 9.53679,-4.80647 13.87476,-7.54328 2.50268,-1.57941 5.2923,-0.70119 8.00854,-1.37515 2.80962,-0.70128 5.33899,-2.66199 8.0085,-3.79889 v -1.36157 c -2.00883,-0.60592 -5.31904,-0.18397 -6.84726,-1.77006 -4.37136,-4.56134 2.38917,-13.73166 6.84726,-15.13409 3.25672,-1.02804 5.57257,3.51963 9.27652,1.99473 3.47035,-1.42973 3.39026,-7.10757 7.43455,-7.41391 4.16443,-0.32 3.35025,4.09835 5.52592,6.29735 2.76296,2.79809 8.38221,4.72475 11.7992,7.17559 3.32351,-4.08479 8.3355,-2.45084 12.39987,-5.05823 3.29012,-2.11053 2.74954,-7.57051 5.87956,-10.01458 7.35449,-5.75272 17.218243,-0.59227 25.099993,-0.58544 l -1.3347,-5.44638 13.01377,-2.92747 4.42471,-5.82756 8.40896,-2.7777 4.81841,-5.01537 16.7178,2.18332 12.68018,-2.65515 v -0.68074 c -5.65271,-3.21004 -10.60463,-4.69685 -16.68444,-6.83189 -2.43596,-0.85569 -5.13211,-0.57188 -7.12754,-2.51139 -4.29791,-4.16918 -0.71408,-13.16526 1.78855,-17.20781 -5.73944,0.25129 -16.89129,4.73966 -21.99005,1.51004 -4.4047,-2.79338 -3.99756,-11.12832 -4.03759,-15.80676 -5.19891,-1.5284 -11.41885,-4.11951 -15.15613,-8.19882 -3.59051,-3.90986 -8.235433,-12.02283 -13.541143,-13.37012 -5.41903,-1.37731 -11.96602,2.95117 -16.68434,5.22985 -0.77415,-3.32571 0.84089,-7.21237 -0.24022,-10.21191 -1.17466,-3.25489 -6.15321,-6.12515 -4.68505,-10.12077 1.09453,-2.96076 5.24562,-2.9526 7.4079,-4.73289 2.40256,-1.97769 3.09668,-6.02707 3.52378,-8.97428 -8.28215,-4.71178 -8.92954,-15.81889 -11.3454,-24.50863 l -5.33904,0.68083 1.35477,-10.02273 5.9864,-5.63561 -20.6887,5.0658 -17.35172,-5.74659 0.66732,-4.76559 c -3.16336,-0.6706 -4.17104,-2.26978 -4.67161,-5.44638 l -8.00853,-3.40395"
         id="path8990"
         sodipodi:nodetypes="ccccsccccscccscccccccccccccccccccccccccsccccccccccscccccccccscccccccccc" /><path
         style="fill:none;stroke:#0c1f49;stroke-width:1.97738;stroke-linecap:butt;stroke-linejoin:miter;stroke-dasharray:none;stroke-opacity:1"
         d="m -189.76697,-241.01062 16.38515,2.51789 3.3433,11.89303 9.56959,2.50797 7.69255,13.03392 -0.29367,11.25413 1.5933,7.55368"
         id="path9055" /><path
         style="fill:none;stroke:#0c1f49;stroke-width:1.97738;stroke-linecap:butt;stroke-linejoin:miter;stroke-dasharray:none;stroke-opacity:1"
         d="m -189.66723,-257.55804 13.45354,-1.66764 12.95285,5.40145 9.5726,4.07918 10.85399,4.92323 4.30396,8.36887 8.72244,3.31689 6.16988,1.23234 11.86765,-7.8743 10.32265,-5.95528 12.425573,-2.12952 2.4994,-7.34294 3.86867,-5.66713"
         id="path9057" /><path
         style="fill:none;stroke:#0c1f49;stroke-width:1.97738;stroke-linecap:butt;stroke-linejoin:miter;stroke-dasharray:none;stroke-opacity:1"
         d="m -117.81579,-195.78577 -2.969,-10.43656 -4.61269,-4.01464 -2.30446,-15.82034 -0.43257,-13.72274 -12.9429,-16.01718 -3.77261,-3.54448 -7.00619,0.0639 -3.49308,8.37658 -1.80671,-7.63308 -4.17638,-9.70811 -6.20377,-14.79098 -4.02842,-6.77674 1.86313,-13.90956 -2.66556,-7.2256 -9.26427,-6.59745 -6.87328,-2.56275 -6.49464,-1.0093 3.48429,-3.70621 2.00105,-9.13638 6.27146,2.20291 17.04028,-4.37949 17.67219,-7.26447 11.24778,-5.42265 -2.38597,11.7217 -12.3461,16.81585 -12.0878,12.34734 -4.48105,-1.0093 10.96942,3.26487 4.5901,2.75082 -4.61894,7.56036 -1.72897,7.18297 1.94086,5.87652 -3.45294,7.60675 5.87651,1.85687 -5.24836,5.38252 -7.31462,-3.38649 -8.41419,-3.66984 c 0,0 -3.73505,-1.32401 -5.72983,-4.32809 -1.99478,-3.00409 -3.11943,-6.70277 -3.11943,-6.70277 l 3.02289,-7.27074 3.34512,-4.93868 4.75813,-0.95037 3.69994,-4.0648"
         id="path9059" /><path
         style="fill:none;stroke:#0c1f49;stroke-width:1.97738;stroke-linecap:butt;stroke-linejoin:miter;stroke-dasharray:none;stroke-opacity:1"
         d="m -96.547697,-247.12852 -16.279233,-4.43717 -22.36891,-3.4379 -8.85805,-4.40206"
         id="path9061" /><path
         style="fill:none;stroke:#0c1f49;stroke-width:1.97738;stroke-linecap:butt;stroke-linejoin:miter;stroke-dasharray:none;stroke-opacity:1"
         d="m -184.683,-260.00371 -3.0605,-8.00295 -0.2144,-9.62912 -4.20396,-2.3496 -4.18641,-1.30394 0.58928,-2.9088 -4.34689,0.16425 -9.34075,-10.47041 c 0,0 -10.30366,-3.50435 -8.21484,-3.3702 2.08881,0.13416 11.45087,0.53788 11.45087,0.53788 l 1.39422,-12.07025 3.31754,-11.11862 5.70475,0.0577 -5.05279,-1.62115 3.41659,-5.10293 1.25504,-7.59672 -2.15903,-5.33739 6.2652,-2.86366 -1.6525,-5.39005 -10.54689,0.46641 5.19195,7.50143 -6.16113,2.71572 0.20186,6.25641 4.31931,4.93242 -10.3162,-2.18661 1.42807,-10.51304 4.68292,-7.19551"
         id="path9063" /><path
         style="fill:none;stroke:#0c1f49;stroke-width:1.97738;stroke-linecap:butt;stroke-linejoin:miter;stroke-dasharray:none;stroke-opacity:1"
         d="m -249.74976,-339.58561 2.82731,6.44449 -3.93566,7.74216 14.34338,-0.7623 3.89678,0.68331 4.42839,3.09436 -2.52513,4.42839 7.02123,0.30091 2.15652,-3.93941 8.76275,-2.90253 2.19288,-4.13249"
         id="path9065" /><path
         style="fill:none;stroke:#0c1f49;stroke-width:1.97738;stroke-linecap:butt;stroke-linejoin:miter;stroke-dasharray:none;stroke-opacity:1"
         d="m -239.05366,-345.95111 7.1905,1.96219 9.83599,0.81872 11.659,0.0201 1.25003,7.59296"
         id="path9067" /><path
         style="fill:none;stroke:#0c1f49;stroke-width:1.97738;stroke-linecap:butt;stroke-linejoin:miter;stroke-dasharray:none;stroke-opacity:1"
         d="m -228.4842,-351.86649 -0.16174,4.90357 -4.57258,2.58156"
         id="path9069" /><path
         style="fill:none;stroke:#0c1f49;stroke-width:1.97738;stroke-linecap:butt;stroke-linejoin:miter;stroke-dasharray:none;stroke-opacity:1"
         d="m -176.26253,-357.60761 5.04824,7.87137 7.41796,-0.19546 3.43438,-2.85382"
         id="path9071"
         sodipodi:nodetypes="cccc" /><path
         style="fill:none;stroke:#0c1f49;stroke-width:1.97738;stroke-linecap:butt;stroke-linejoin:miter;stroke-dasharray:none;stroke-opacity:1"
         d="m -172.88686,-359.48831 2.1461,2.87531 4.54188,0.72024 3.24204,-1.16059"
         id="path9073"
         sodipodi:nodetypes="cccc" /></g></g></svg>
