<?xml version="1.0" encoding="UTF-8" standalone="no"?>
<!-- Created with Inkscape (http://www.inkscape.org/) -->

<svg
   width="197.70113mm"
   height="40.125767mm"
   viewBox="0 0 197.70113 40.125767"
   version="1.1"
   id="svg5"
   xml:space="preserve"
   inkscape:version="1.2.2 (b0a8486541, 2022-12-01)"
   sodipodi:docname="logo-proled.svg"
   xmlns:inkscape="http://www.inkscape.org/namespaces/inkscape"
   xmlns:sodipodi="http://sodipodi.sourceforge.net/DTD/sodipodi-0.dtd"
   xmlns:xlink="http://www.w3.org/1999/xlink"
   xmlns="http://www.w3.org/2000/svg"
   xmlns:svg="http://www.w3.org/2000/svg"><sodipodi:namedview
     id="namedview7"
     pagecolor="#505050"
     bordercolor="#ffffff"
     borderopacity="1"
     inkscape:showpageshadow="0"
     inkscape:pageopacity="0"
     inkscape:pagecheckerboard="1"
     inkscape:deskcolor="#505050"
     inkscape:document-units="mm"
     showgrid="false"
     inkscape:zoom="0.72"
     inkscape:cx="333.33333"
     inkscape:cy="-53.472222"
     inkscape:window-width="1366"
     inkscape:window-height="732"
     inkscape:window-x="0"
     inkscape:window-y="0"
     inkscape:window-maximized="1"
     inkscape:current-layer="layer1" /><defs
     id="defs2"><linearGradient
       inkscape:collect="always"
       id="linearGradient16865"><stop
         style="stop-color:#883e43;stop-opacity:1;"
         offset="0"
         id="stop16861" /><stop
         style="stop-color:#d53742;stop-opacity:1;"
         offset="1"
         id="stop16863" /></linearGradient><linearGradient
       inkscape:collect="always"
       id="linearGradient10440"><stop
         style="stop-color:#2b5770;stop-opacity:1;"
         offset="0"
         id="stop10436" /><stop
         style="stop-color:#1660a6;stop-opacity:1;"
         offset="1"
         id="stop10438" /></linearGradient><linearGradient
       inkscape:collect="always"
       id="linearGradient2856"><stop
         style="stop-color:#84845e;stop-opacity:1;"
         offset="0"
         id="stop2852" /><stop
         style="stop-color:#e6d33e;stop-opacity:1;"
         offset="1"
         id="stop2854" /></linearGradient><linearGradient
       inkscape:collect="always"
       xlink:href="#linearGradient2856"
       id="linearGradient2858"
       x1="2.5700221"
       y1="186.20639"
       x2="18.766609"
       y2="171.77071"
       gradientUnits="userSpaceOnUse" /><linearGradient
       inkscape:collect="always"
       xlink:href="#linearGradient10440"
       id="linearGradient10442"
       x1="24.594862"
       y1="151.55293"
       x2="9.4206553"
       y2="164.99478"
       gradientUnits="userSpaceOnUse" /><linearGradient
       inkscape:collect="always"
       xlink:href="#linearGradient16865"
       id="linearGradient16867"
       x1="47.097618"
       y1="151.73909"
       x2="28.513248"
       y2="166.2988"
       gradientUnits="userSpaceOnUse" /></defs><g
     inkscape:label="Capa 1"
     inkscape:groupmode="layer"
     id="layer1"
     transform="translate(-4.9145305,-159.1795)"><g
       id="g21427"
       transform="matrix(0.95152632,0,0,0.95152632,8.8981319,18.7568)"><path
         id="path302"
         style="opacity:1;fill:url(#linearGradient2858);fill-opacity:1;stroke-width:0.681291"
         d="m 19.283105,169.56382 c -1.287503,0.001 -2.840002,0.039 -4.434354,0.11576 -7.2956955,0.35131 -9.6618165,1.32552 -10.9099295,4.4912 -0.679584,1.72369 -3.50004425,12.49359 -3.50004425,13.36507 0,0.76771 14.24267775,0.39814 16.02951275,-0.41599 2.312288,-1.05355 3.411616,-3.26903 5.374866,-10.82776 1.358444,-5.23017 1.452936,-6.23252 0.617533,-6.55309 -0.305133,-0.11708 -1.522222,-0.17661 -3.177584,-0.17519 z"
         sodipodi:nodetypes="sssssccs" /><path
         id="path960"
         style="opacity:1;fill:#1e1e1e;fill-opacity:1;stroke-width:0.681291"
         d="m 132.15116,149.14422 -0.77979,3.91759 c -0.4287,2.15457 -1.0674,4.99045 -1.41956,6.30194 -1.10669,4.12151 -4.7103,19.82388 -4.7103,20.52486 0,0.37222 1.40457,0.57744 3.16311,0.46199 l 3.16312,-0.20774 3.62303,-14.98824 c 1.99251,-8.24361 3.63459,-15.21829 3.64939,-15.49932 0.0148,-0.28104 -1.48408,-0.51108 -3.33106,-0.51108 z m 64.04622,0.1034 c -0.38517,-0.009 -0.81135,7.2e-4 -1.26297,0.03 l -3.20549,0.20723 -0.94981,4.47001 -1.43274,5.42694 c -1.69766,-0.59603 -3.26942,-0.76015 -6.09187,-0.98945 -4.4363,-0.14695 -8.07421,0.57777 -10.2348,1.48372 -4.40334,1.84635 -5.44466,4.36236 -6.55952,9.70476 -1.35729,6.50411 0.0812,9.06578 5.79034,10.311 3.72344,0.81211 11.24305,0.12673 14.45597,-1.31775 4.58477,-2.06124 5.7086,-3.78977 7.61917,-11.71608 2.3767,-9.86009 3.81424,-16.30862 3.81424,-17.11215 0,-0.2859 -0.78699,-0.47214 -1.94252,-0.49816 z m -33.91317,8.77518 c -1.80882,-0.005 -4.16984,0.0388 -6.64662,0.13332 -13.03919,0.49755 -16.29298,2.1476 -18.40715,9.3364 -2.27619,7.73965 -0.88561,11.07647 5.10563,12.25248 1.65207,0.32428 6.56966,0.62304 10.92802,0.66404 l 7.92406,0.0749 0.76223,-3.0272 c 0.4192,-1.66477 0.76223,-3.19774 0.76223,-3.40652 0,-0.20878 -3.96044,-0.3793 -8.80102,-0.3793 -4.84057,0 -9.28627,-0.18597 -9.87898,-0.41341 -2.94412,-1.12976 -1.60142,-2.2087 1.03256,-2.13595 l 18.30269,0.50556 0.44907,-1.87379 c 0.24692,-1.03045 0.97205,-3.97075 1.61127,-6.53397 0.99481,-3.98909 1.0221,-4.71418 0.18914,-5.03381 -0.26762,-0.10272 -1.52432,-0.15739 -3.33313,-0.16278 z m -65.629593,0.19688 c -2.19516,-0.0865 -8.171013,1.45349 -10.059858,2.72749 -1.208663,0.81521 -2.669104,2.40228 -3.245797,3.52641 -1.006102,1.96119 -3.753776,12.95145 -3.753776,15.01459 0,0.72415 -0.334016,0.97357 3.033407,0.9958 3.853654,0.0254 3.059194,-0.0913 3.742924,-2.55488 0.389976,-1.40517 1.05657,-4.31227 1.481046,-6.46007 1.007615,-5.09844 1.144703,-6.72091 5.411554,-6.59598 4.16094,0.12183 3.01254,-0.56727 3.79823,-3.28354 0.45881,-1.58622 0.58423,-3.03877 0.27854,-3.22771 -0.13636,-0.0843 -0.37267,-0.12975 -0.68627,-0.14211 z m 17.460953,0.047 c -5.36414,-0.0154 -11.10635,1.49633 -13.67203,4.54546 -1.572813,1.86917 -3.303713,7.84049 -3.304713,11.40552 -0.001,2.13963 2.51973,4.65458 5.520593,5.50819 3.23477,0.92014 12.06004,0.41968 15.09366,-0.85576 3.87204,-1.62797 5.98459,-4.4077 7.25175,-9.54257 0.79634,-3.22701 0.95209,-5.1752 0.51521,-6.44302 -1.05429,-3.05954 -6.04032,-4.60242 -11.40447,-4.61782 z m -46.131561,0.12351 c -4.804138,0.01 -6.824797,0.14867 -9.583122,1.52972 -1.837958,0.92022 -3.429917,2.52452 -4.502182,3.62966 -1.876013,1.93353 -3.695959,10.98638 -4.906744,17.75792 -0.435097,2.43335 -1.372984,6.07618 -1.390688,6.87779 -0.02293,1.04474 0.45938,1.1986 3.209107,1.02216 l 3.235978,-0.20774 0.927592,-4.46949 0.990352,-5.44436 c 1.093295,0.47924 2.135606,0.82139 3.315937,0.93158 4.989855,0.46581 10.674664,0.002 13.645357,-1.45099 3.135851,-1.5709 4.974145,-4.04119 6.36935,-9.55884 1.988944,-7.86576 -0.963958,-10.63805 -11.310937,-10.61745 z m 81.734811,6.27835 c 1.26407,0.0159 5.55296,0.0703 6.61467,0.0394 1.39222,-0.0404 1.97704,-0.01 1.6099,1.12778 -0.14667,0.45444 -0.41369,1.24316 -0.41369,1.24316 0,0 -4.15675,-0.0318 -6.65645,-0.0406 -6.92036,-0.0246 -7.34384,0.12898 -6.40007,-1.02826 0.8814,-1.08077 2.91674,-1.37069 5.24564,-1.34145 z m -37.48995,0.14761 c 2.46126,-0.0354 4.899,0.24007 5.71076,0.84956 1.69748,1.27453 0.25305,6.50682 -2.03657,7.37733 -2.07584,0.7892 -9.76803,0.80327 -11.00398,0.0202 -1.38599,-0.87814 -0.34874,-5.95126 1.47846,-7.23108 0.9055,-0.63423 3.39005,-0.9805 5.85133,-1.01596 z m -45.363656,0.008 c 5.66268,0.014 6.208286,0.43952 5.617745,4.37751 -0.380195,2.53533 -0.818979,3.30633 -2.176611,3.82251 -2.452543,0.93245 -10.009429,0.79573 -11.342461,-0.20516 -0.973511,-0.73094 -1.026814,-1.26963 -0.374654,-3.8008 0.909712,-3.53076 2.248261,-4.20896 8.275981,-4.19406 z m 117.090746,-0.0121 c 3.00222,0.43937 3.59456,1.28047 3.52918,3.11589 -0.0584,0.95252 -0.35671,2.1202 -0.8143,3.03127 -0.59525,1.60983 -1.66197,2.52101 -3.84509,2.72512 -1.17252,0.10963 -2.74338,0.24951 -4.15091,0.2737 -1.91799,0.033 -3.76017,-0.26998 -4.89108,-0.73862 -2.5056,-1.0383 -1.48206,-3.59137 -0.60618,-5.6665 0.9626,-1.70965 1.67018,-2.81472 4.86727,-2.83145 1.2461,-0.0742 3.32859,-0.17662 5.91111,0.0906 z"
         sodipodi:nodetypes="ccsscccsscccccccssssssccscssccsssssccssssssssssssssssscssssscssscccccscscccsscssscssssccscsssscccsssccccc" /><path
         id="path2825"
         style="opacity:1;fill:url(#linearGradient10442);fill-opacity:1;stroke-width:0.681291"
         d="m 9.4480465,149.14422 -0.447518,1.87379 c -0.24622,1.03044 -1.018481,4.14495 -1.716174,6.92154 -1.578872,6.28334 -1.576135,6.56758 0.09353,8.23723 1.196838,1.19684 2.271444,1.36219 8.8309855,1.36219 h 7.467762 l 0.666109,-2.55488 c 1.960018,-7.51542 2.792594,-11.00689 2.792594,-11.71093 0,-0.43132 -0.752508,-1.53695 -1.672249,-2.45669 -1.563667,-1.56367 -2.137556,-1.67225 -8.843388,-1.67225 z"
         sodipodi:nodetypes="ccsssccsssc" /><path
         id="path2827"
         style="opacity:1;fill:url(#linearGradient16867);fill-opacity:1;stroke-width:0.681291"
         d="m 45.833423,149.17112 c -1.379705,-0.0108 -3.147091,0.0265 -4.969206,0.1142 -7.295688,0.35131 -9.661818,1.32501 -10.909928,4.49069 -0.679585,1.72368 -3.500045,12.49412 -3.500045,13.3656 0,0.76771 14.242679,0.39762 16.029512,-0.41651 2.312286,-1.05355 3.411618,-3.26852 5.374866,-10.82726 1.358444,-5.23016 1.452937,-6.23252 0.617533,-6.55309 -0.271228,-0.10407 -1.263029,-0.16286 -2.642732,-0.17363 z"
         sodipodi:nodetypes="ccsssssc" /></g></g></svg>
