<?xml version="1.0" encoding="UTF-8" standalone="no"?>
<!-- Created with Inkscape (http://www.inkscape.org/) -->

<svg
   width="101.4393mm"
   height="104.29504mm"
   viewBox="0 0 101.4393 104.29504"
   version="1.1"
   id="svg5"
   xml:space="preserve"
   inkscape:version="1.2.2 (b0a8486541, 2022-12-01)"
   sodipodi:docname="log-chevron.svg"
   xmlns:inkscape="http://www.inkscape.org/namespaces/inkscape"
   xmlns:sodipodi="http://sodipodi.sourceforge.net/DTD/sodipodi-0.dtd"
   xmlns="http://www.w3.org/2000/svg"
   xmlns:svg="http://www.w3.org/2000/svg"><sodipodi:namedview
     id="namedview7"
     pagecolor="#505050"
     bordercolor="#ffffff"
     borderopacity="1"
     inkscape:showpageshadow="0"
     inkscape:pageopacity="0"
     inkscape:pagecheckerboard="1"
     inkscape:deskcolor="#505050"
     inkscape:document-units="mm"
     showgrid="false"
     inkscape:zoom="0.84"
     inkscape:cx="172.61905"
     inkscape:cy="274.40476"
     inkscape:window-width="1366"
     inkscape:window-height="732"
     inkscape:window-x="0"
     inkscape:window-y="0"
     inkscape:window-maximized="1"
     inkscape:current-layer="layer1" /><defs
     id="defs2" /><g
     inkscape:label="Capa 1"
     inkscape:groupmode="layer"
     id="layer1"
     transform="translate(-147.17137,-107.7336)"><rect
       style="opacity:0;fill:#ffffff;fill-opacity:1;stroke:#2896f2;stroke-width:0.609517;paint-order:stroke markers fill;stop-color:#000000"
       id="rect6790"
       width="198.8371"
       height="102.40835"
       x="2.5903318"
       y="107.23602" /><rect
       style="opacity:0;fill:#d90d0f;fill-opacity:1;stroke:#2896f2;stroke-width:0.96827;paint-order:stroke markers fill;stop-color:#000000"
       id="rect16940"
       width="245.11423"
       height="103.2457"
       x="3.2301822"
       y="108.01765" /><g
       id="g18201"
       transform="matrix(1.3718245,0,0,1.3718245,104.14571,-334.13588)"><path
         style="fill:#0066b0;fill-opacity:1;stroke-width:0.264583"
         d="m 41.697545,338.69426 c -2.38801,-0.35193 -3.80318,-1.71525 -4.44963,-4.28657 -0.65809,-2.6176 0.58292,-5.32983 3.00384,-6.56489 1.10377,-0.5631 4.50777,-0.77448 4.97342,-0.30883 0.12545,0.12545 0.1595,0.65075 0.0757,1.16735 l -0.15242,0.93926 -1.38487,-0.11485 c -2.47935,-0.2056 -3.85269,1.0475 -3.85269,3.51538 0,2.4843 1.39586,3.74761 3.85981,3.49331 l 1.38112,-0.14254 0.17472,0.93134 c 0.0961,0.51224 0.10866,0.99741 0.0279,1.07816 -0.30034,0.30034 -2.44226,0.47188 -3.65687,0.29288 z m 15.99116,-0.48611 c -2.61903,-1.63902 -2.42698,-6.33815 0.31326,-7.66467 2.96367,-1.43469 5.72139,0.24111 5.72139,3.47674 v 1.25195 l -2.82314,0.0751 -2.82316,0.0751 0.65294,0.75814 c 0.55832,0.64826 0.84667,0.75813 1.98975,0.75813 0.73525,0 1.57968,-0.12998 1.87652,-0.28884 0.48358,-0.25881 0.55354,-0.20007 0.67273,0.56478 0.0732,0.46949 0.0208,0.97269 -0.11629,1.11821 -0.13712,0.14552 -1.22568,0.30025 -2.41902,0.34385 -1.82393,0.0666 -2.30919,-0.008 -3.04498,-0.46848 z m 3.68333,-5.36547 c -0.11968,-0.32743 -0.51884,-0.76683 -0.88702,-0.97645 -0.59091,-0.33643 -0.74645,-0.33067 -1.32606,0.0491 -0.36115,0.23664 -0.72091,0.67604 -0.79947,0.97645 -0.13329,0.5097 -0.0301,0.54621 1.54366,0.54621 1.63704,0 1.68012,-0.0175 1.46889,-0.59531 z m 20.2107,5.63455 c -2.00818,-0.83063 -2.83472,-3.85533 -1.72292,-6.30495 0.83121,-1.83139 3.33769,-2.67682 5.36944,-1.8111 2.99357,1.27555 3.39281,6.1716 0.64011,7.85002 -0.89244,0.54416 -3.25913,0.69104 -4.28663,0.26603 z m 3.0324,-1.91413 c 0.76913,-0.82556 0.83058,-3.00539 0.11607,-4.1173 -0.47654,-0.74159 -1.69646,-0.79351 -2.32502,-0.099 -0.9334,1.0314 -0.87567,3.28789 0.10932,4.27288 0.68228,0.68227 1.43003,0.66211 2.09963,-0.0566 z m -37.82511,-3.26395 c 0,-5.11488 0.006,-5.16813 0.59531,-5.38863 1.89939,-0.71056 1.78594,-0.80054 1.78594,1.41652 v 2.01012 l 0.77525,-0.57316 c 0.4951,-0.36605 1.16278,-0.57317 1.84765,-0.57317 2.07341,0 2.66877,1.19468 2.66877,5.35533 v 2.91891 h -1.19063 -1.19062 v -2.58696 c 0,-2.86914 -0.34568,-3.76304 -1.45521,-3.76304 -1.10953,0 -1.45521,0.8939 -1.45521,3.76304 v 2.58696 h -1.19062 -1.19063 z m 18.93384,1.39561 c -0.71309,-2.07367 -1.3486,-3.91914 -1.41224,-4.10104 -0.0825,-0.23575 0.26205,-0.33073 1.19974,-0.33073 h 1.31544 l 0.75683,2.91041 c 0.41625,1.60073 0.82748,2.91042 0.91384,2.91042 0.0864,0 0.49251,-1.30969 0.90256,-2.91042 l 0.74554,-2.91041 h 1.31511 c 0.93769,0 1.28177,0.0949 1.19892,0.33073 -0.0639,0.1819 -0.69482,2.02737 -1.40203,4.10104 l -1.28583,3.77031 h -1.47567 -1.47568 z m 8.05136,1.05833 c -0.001,-1.49159 -0.0774,-3.33705 -0.16914,-4.10104 l -0.16685,-1.38906 h 1.22748 c 1.19428,0 1.22748,0.022 1.22748,0.81405 v 0.81405 l 0.68498,-0.81405 c 0.47602,-0.56572 0.91994,-0.81405 1.4552,-0.81405 0.72222,0 0.77024,0.066 0.77024,1.05833 0,0.94606 -0.0686,1.05833 -0.64671,1.05833 -0.35569,0 -0.98076,0.28727 -1.38906,0.63838 -0.69562,0.59817 -0.74818,0.78977 -0.83483,3.04271 l -0.0925,2.40433 h -1.03201 -1.03201 l -0.002,-2.71198 z m 15.34814,-0.97054 c 0,-2.0254 -0.0723,-3.87086 -0.1606,-4.10105 -0.13213,-0.34431 0.0555,-0.41851 1.05833,-0.41851 1.14644,0 1.21893,0.0423 1.21893,0.71096 v 0.71096 l 0.77703,-0.74444 c 1.16699,-1.11805 2.71659,-1.094 3.74601,0.0581 0.76147,0.85223 0.76863,0.89102 0.76863,4.16337 v 3.30311 h -1.19062 -1.19063 v -2.8575 c 0,-3.02371 -0.16438,-3.4925 -1.22464,-3.4925 -1.1781,0 -1.42119,0.6142 -1.42119,3.59078 v 2.75922 h -1.19063 -1.19062 z"
         id="path16979"
         sodipodi:nodetypes="ssssccssscssssssscccsssssssssssssssssssssssssscscssscccssscccsssscssscssscccscscsscsssssscccccsssscssscccssscccs" /><path
         id="path17079"
         style="fill:#e11736;fill-opacity:1;stroke-width:0.264583"
         d="m 96.351535,364.19035 c -0.0079,-0.001 -0.01598,4e-5 -0.02429,0.003 -0.18369,0.0676 -6.82355,2.28371 -14.75517,4.92476 l -14.42134,4.80178 -0.077,-0.0258 -0.18655,0.20153 -14.74949,4.91753 -14.49679,4.8333 14.16658,4.73925 c 8.00364,2.6778 14.79129,4.87865 15.08332,4.89065 0.29204,0.012 7.07861,-2.16115 15.08125,-4.82916 l 14.55001,-4.85087 0.06977,-9.86296 c 0.05353,-7.60761 0.0046,-9.70814 -0.2403,-9.74307 z" /><path
         style="fill:#96002d;fill-opacity:1;stroke-width:0.264583"
         d="m 37.387935,374.16239 c 0,-5.37247 0.0901,-9.76812 0.20025,-9.76812 0.11013,0 6.74747,2.18281 14.74963,4.85069 l 14.54937,4.8507 -14.74962,4.91742 -14.74963,4.91742 z"
         id="path17086"
         sodipodi:nodetypes="ssscccs" /><path
         id="path17088"
         style="fill:#009dd9;fill-opacity:1;stroke-width:0.264583"
         d="m 96.351535,341.07865 c -0.008,-10e-4 -0.016,4e-5 -0.0243,0.003 -0.18369,0.0676 -6.82355,2.28371 -14.75517,4.92476 l -14.42134,4.80178 -0.077,-0.0258 -0.18655,0.20153 -14.74949,4.91753 -14.49679,4.8333 14.16658,4.73925 c 8.00364,2.6778 14.79129,4.87865 15.08332,4.89065 0.29204,0.012 7.07861,-2.16115 15.08125,-4.82916 l 14.55001,-4.85087 0.0698,-9.86296 c 0.0535,-7.60761 0.005,-9.70814 -0.2403,-9.74307 z" /><path
         style="fill:#0066b1;fill-opacity:1;stroke-width:0.264583"
         d="m 37.387935,351.05069 c 0,-5.37247 0.0901,-9.76812 0.20025,-9.76812 0.11013,0 6.74747,2.18281 14.74963,4.85069 l 14.54937,4.8507 -14.74962,4.91742 -14.74963,4.91742 z"
         id="path17090"
         sodipodi:nodetypes="ssscccs" /></g><rect
       style="opacity:0;fill:#96002d;fill-opacity:1;stroke:#2896f2;stroke-width:1;paint-order:stroke markers fill;stop-color:#000000"
       id="rect18981"
       width="100.4393"
       height="103.29504"
       x="147.67137"
       y="108.2336" /></g></svg>
