<?xml version="1.0" encoding="UTF-8" standalone="no"?>
<!-- Created with Inkscape (http://www.inkscape.org/) -->

<svg
   width="246.0825mm"
   height="104.21397mm"
   viewBox="0 0 246.0825 104.21397"
   version="1.1"
   id="svg5"
   xml:space="preserve"
   inkscape:version="1.2.2 (b0a8486541, 2022-12-01)"
   sodipodi:docname="pdvsa-independencia.svg"
   xmlns:inkscape="http://www.inkscape.org/namespaces/inkscape"
   xmlns:sodipodi="http://sodipodi.sourceforge.net/DTD/sodipodi-0.dtd"
   xmlns="http://www.w3.org/2000/svg"
   xmlns:svg="http://www.w3.org/2000/svg"><sodipodi:namedview
     id="namedview7"
     pagecolor="#505050"
     bordercolor="#ffffff"
     borderopacity="1"
     inkscape:showpageshadow="0"
     inkscape:pageopacity="0"
     inkscape:pagecheckerboard="1"
     inkscape:deskcolor="#505050"
     inkscape:document-units="mm"
     showgrid="false"
     inkscape:zoom="0.51758558"
     inkscape:cx="394.13772"
     inkscape:cy="157.46188"
     inkscape:window-width="1366"
     inkscape:window-height="732"
     inkscape:window-x="0"
     inkscape:window-y="0"
     inkscape:window-maximized="1"
     inkscape:current-layer="layer1" /><defs
     id="defs2" /><g
     inkscape:label="Capa 1"
     inkscape:groupmode="layer"
     id="layer1"
     transform="translate(-2.7460472,-107.53351)"><rect
       style="opacity:0;fill:#ffffff;fill-opacity:1;stroke:#2896f2;stroke-width:0.609517;paint-order:stroke markers fill;stop-color:#000000"
       id="rect6790"
       width="198.8371"
       height="102.40835"
       x="2.5903318"
       y="107.23602" /><path
       style="fill:#d90d0f;fill-opacity:1;stroke-width:0.0699995"
       d="m 36.360633,170.43563 c -1.047953,-0.1978 -2.238301,-0.51592 -2.90083,-0.77523 -0.963827,-0.37723 -1.969937,-0.88738 -1.949419,-0.98845 0.01114,-0.0549 2.223165,-2.26819 4.915589,-4.91837 l 4.89532,-4.81851 4.820226,4.76755 c 3.855505,3.81338 4.802094,4.78442 4.72964,4.85185 -0.312749,0.29101 -3.645869,1.46166 -5.165565,1.81424 -0.801797,0.18602 -0.893285,0.16475 -1.367181,-0.31785 -0.229795,-0.23401 -1.036028,-1.02146 -1.791625,-1.74989 l -1.373815,-1.3244 -1.837629,1.80238 c -1.010699,0.99131 -1.888727,1.80825 -1.951173,1.81542 -0.06245,0.007 -0.523039,-0.0643 -1.023538,-0.15874 z m -7.069971,-2.82124 c -0.624408,-0.28742 -3.36728,-2.37173 -4.056691,-3.08268 l -0.276708,-0.28535 0.251701,-0.26249 c 0.138429,-0.14438 3.751559,-3.86703 8.029172,-8.27256 4.277613,-4.40554 7.777476,-8.03023 7.777476,-8.05488 0,-0.0247 -3.499863,-3.64934 -7.777476,-8.05488 -4.277613,-4.40553 -7.892222,-8.13131 -8.032467,-8.27952 l -0.254992,-0.26947 0.839997,-0.8008 c 0.461997,-0.44044 0.981746,-0.89161 1.154994,-1.00259 0.173248,-0.11098 0.456749,-0.31621 0.630002,-0.45607 0.438047,-0.35363 1.529645,-1.04504 1.796768,-1.13808 l 0.221783,-0.0772 3.519847,3.58185 c 8.014305,8.15548 7.833045,7.97722 8.044276,7.91114 0.111055,-0.0348 2.543693,-2.36405 5.873761,-5.62428 3.12631,-3.06074 5.726919,-5.57476 5.77913,-5.58671 0.152244,-0.0349 0.492519,0.17107 1.358209,0.82189 0.446112,0.33538 0.952863,0.7079 1.126111,0.82781 0.173253,0.11992 0.519749,0.40809 0.769999,0.64039 0.250249,0.2323 0.486497,0.4229 0.524998,0.42355 0.0385,10e-4 0.235235,0.18273 0.437197,0.40463 l 0.367199,0.40344 -8.172169,8.13718 -8.172163,8.13717 8.171709,8.13776 8.171709,8.13777 -0.373943,0.40249 c -0.20567,0.22138 -0.406243,0.4025 -0.445721,0.4025 -0.03945,0 -0.288232,0.19788 -0.552794,0.43973 -0.609325,0.55702 -2.750176,2.13111 -3.032102,2.22939 l -0.212742,0.0742 -4.393062,-4.2932 c -2.416186,-2.36127 -4.996874,-4.88719 -5.734863,-5.61318 -1.06207,-1.04481 -1.383168,-1.32226 -1.540266,-1.33092 -0.175397,-0.01 -0.856933,0.65863 -5.860372,5.74654 -3.114042,3.16661 -5.665408,5.75677 -5.669702,5.75593 -0.0042,-5.3e-4 -0.133807,-0.0595 -0.287805,-0.13042 z m 22.053173,-12.51553 -7.335023,-7.47317 0.480894,-0.454 c 0.264493,-0.24969 2.795595,-2.70764 5.624684,-5.4621 2.829084,-2.75447 5.993403,-5.83499 7.031824,-6.84561 1.038421,-1.01062 1.905204,-1.83591 1.926181,-1.83397 0.02097,0.002 0.415528,0.54334 0.876771,1.20311 0.92915,1.32909 2.066363,3.31652 2.066363,3.61126 0,0.18188 -1.619824,1.86103 -8.689853,9.00811 l -0.970476,0.98106 4.721486,4.86199 c 2.596817,2.6741 4.740192,4.93654 4.763065,5.02766 0.05781,0.23033 -0.642661,1.535 -1.346489,2.50795 -0.302482,0.41813 -0.712216,0.9965 -0.910524,1.28528 -0.198307,0.28878 -0.482811,0.64443 -0.632225,0.79032 l -0.271659,0.26527 z m -28.885411,6.01502 c -0.47725,-0.64202 -1.052632,-1.46773 -1.278625,-1.83491 -0.417819,-0.67885 -0.974147,-1.80317 -0.938635,-1.89697 0.01072,-0.0284 2.15662,-2.25686 4.768621,-4.95218 2.611996,-2.69533 4.753987,-4.91757 4.759981,-4.93835 0.006,-0.0207 -2.115352,-2.24631 -4.714086,-4.94567 -2.598745,-2.69938 -4.734541,-4.93467 -4.746218,-4.96735 -0.0936,-0.2618 2.253712,-4.00772 2.909095,-4.64244 l 0.274121,-0.26546 5.382314,5.48044 c 2.960266,3.01426 6.272494,6.37983 7.360495,7.47908 l 1.978187,1.99863 -6.416494,6.33134 c -3.529073,3.48223 -6.878761,6.77905 -7.443755,7.32625 l -1.027272,0.99492 z m 126.811756,-1.84177 c -2.2277,-0.18556 -4.09003,-0.8017 -5.40806,-1.78924 -0.73031,-0.54719 -1.23232,-1.07463 -1.69841,-1.78445 -0.58865,-0.89646 -1.0378,-2.1402 -1.15866,-3.2084 l -0.0481,-0.42498 3.34493,0.0182 3.34494,0.0182 0.12095,0.35588 c 0.24501,0.72086 0.6358,1.17299 1.261,1.45892 0.7877,0.36026 2.28411,0.40669 3.21637,0.0998 0.57292,-0.18862 1.0811,-0.65611 1.15783,-1.06514 0.18006,-0.95982 -0.6833,-1.59318 -3.02901,-2.22205 -2.35881,-0.63239 -2.83868,-0.7706 -3.99143,-1.1496 -1.93752,-0.63701 -2.93549,-1.20208 -3.65958,-2.07218 -0.88811,-1.06716 -1.29138,-2.15469 -1.37224,-3.7006 -0.13616,-2.6025 1.05685,-4.68317 3.40446,-5.9376 1.63128,-0.87167 4.22357,-1.31412 6.64172,-1.13364 1.90903,0.1425 3.20802,0.46708 4.47614,1.11847 2.02283,1.03906 3.27169,2.83691 3.61279,5.20097 l 0.0481,0.3332 -3.26422,-0.0182 -3.26423,-0.0182 -0.12134,-0.35848 c -0.22211,-0.65614 -0.75601,-1.12184 -1.51117,-1.31809 -0.55184,-0.14341 -1.78379,-0.14364 -2.26606,-0.001 -1.14771,0.34083 -1.43918,1.58863 -0.51953,2.22412 0.62227,0.43002 1.52402,0.7403 3.79779,1.30678 2.65128,0.66054 4.19884,1.20871 5.10528,1.8084 1.3315,0.88091 2.22091,2.18765 2.50325,3.67784 0.15133,0.79876 0.09,2.52076 -0.11744,3.2998 -0.7833,2.94101 -3.29087,4.74388 -7.19893,5.17584 -1.20592,0.13328 -2.56407,0.17509 -3.40714,0.10487 z m -74.4447,-11.30789 v -10.75215 l 5.547476,0.0355 c 5.759753,0.0369 6.529503,0.0726 7.997468,0.37127 1.007182,0.20491 2.187611,0.68021 2.895808,1.166 0.476733,0.32702 1.254431,1.09059 1.583609,1.55483 0.86183,1.21546 1.225559,2.52481 1.225559,4.41175 0,2.38537 -0.633355,4.06703 -2.021171,5.36656 -0.95354,0.89288 -2.079234,1.44165 -3.648806,1.77876 -0.851436,0.18288 -0.953682,0.18882 -3.797484,0.22077 l -2.922489,0.0329 v 3.283 3.28302 H 78.255465 74.82548 Z m 11.234955,-1.23213 c 0.563811,-0.16802 0.932593,-0.38975 1.152032,-0.69267 0.589161,-0.81331 0.403745,-2.5508 -0.323327,-3.02979 -0.573127,-0.37757 -1.907501,-0.55312 -3.943692,-0.51881 l -1.224999,0.0206 -0.01848,2.19388 -0.01854,2.19388 2.013497,-0.0314 c 1.504623,-0.0235 2.101959,-0.0578 2.3635,-0.13571 z m 10.814954,1.23108 v -10.75322 l 5.477471,0.0373 c 6.5282,0.0445 7.27962,0.099 8.93157,0.64878 2.40852,0.80151 4.26195,2.76395 5.15192,5.45493 0.5455,1.64945 0.78729,4.14132 0.59677,6.15041 -0.37746,3.98049 -2.07201,6.67667 -5.14456,8.18548 -1.80052,0.88417 -3.27644,1.02913 -10.48069,1.02937 h -4.532481 v -10.75321 z m 9.597271,5.29273 c 1.61328,-0.15299 2.6176,-0.71961 3.12316,-1.76202 0.40973,-0.84483 0.57631,-1.84034 0.57771,-3.45245 0.003,-3.32499 -0.83621,-4.76763 -3.03729,-5.2219 -0.49499,-0.10216 -0.94223,-0.13144 -2.01838,-0.13216 l -1.3825,-10e-4 v 5.31998 5.31998 l 0.9975,-6e-5 c 0.54862,-3e-5 1.33153,-0.0317 1.7398,-0.0704 z m 17.96103,2.22366 c -0.59613,-1.78099 -2.21987,-6.61651 -3.6083,-10.74562 l -2.52443,-7.50747 h 3.49303 c 1.92116,0 3.50823,0.0246 3.52681,0.0547 0.0186,0.0301 0.82423,3.09343 1.79031,6.80747 0.96609,3.71404 1.7811,6.812 1.81115,6.88435 0.0374,0.0902 0.64335,-1.97756 1.92801,-6.57997 1.03036,-3.69133 1.90543,-6.8139 1.94461,-6.93902 l 0.0712,-0.22751 h 3.35456 c 2.6392,0 3.35366,0.0187 3.35037,0.0875 -0.003,0.0481 -1.61855,4.87549 -3.59165,10.72746 l -3.58748,10.63995 -3.43717,0.0182 -3.43718,0.0182 z m 37.03033,2.30933 c 0.17919,-0.51012 1.87651,-5.33748 3.77181,-10.72746 l 3.44601,-9.79996 h 3.48537 3.48536 l 3.73033,10.60496 c 2.05168,5.83273 3.74871,10.66039 3.77116,10.72813 0.0387,0.11659 -0.14122,0.1222 -3.37108,0.105 l -3.41191,-0.0182 -0.39256,-1.39999 -0.39256,-1.39999 -3.40761,-0.0182 c -3.19296,-0.017 -3.41146,-0.0104 -3.46875,0.105 -0.0336,0.0677 -0.23036,0.71379 -0.43721,1.43566 l -0.37608,1.31249 h -3.37904 -3.37905 z m 12.79836,-6.61497 c -0.0574,-0.23073 -1.98707,-6.94012 -2.03629,-7.07999 -0.0188,-0.0536 -0.0491,-0.0828 -0.0671,-0.0648 -0.018,0.018 -0.51632,1.67626 -1.10734,3.685 l -1.0746,3.65225 h 2.16658 2.16658 z m -115.422526,0.56046 -3.903528,-4.03325 3.907098,-3.90858 c 2.148905,-2.14971 3.951742,-3.90014 4.006297,-3.88982 0.113316,0.0214 0.08094,-0.0751 0.59354,1.76873 0.503493,1.81101 0.716182,3.37189 0.767764,5.63439 0.03533,1.5503 -0.02852,2.3931 -0.345027,4.55428 -0.113321,0.77371 -0.834024,3.43158 -1.00855,3.71939 l -0.114076,0.18813 z m -39.688197,3.07952 c -0.744215,-2.77812 -1.165198,-5.43891 -1.165668,-7.36747 -2.27e-4,-0.91998 0.199242,-2.82426 0.461686,-4.40763 0.291787,-1.76037 0.77415,-3.50234 0.969827,-3.50234 0.09094,0 0.182459,0.0927 4.812536,4.87314 l 3.058783,3.15813 -3.955639,3.85933 c -2.175601,2.12264 -3.977983,3.85934 -4.005298,3.85934 -0.0273,0 -0.106614,-0.21262 -0.176227,-0.4725 z M 38.037204,133.191 c -1.76911,-1.71902 -3.935944,-3.82164 -4.815186,-4.67248 -1.504359,-1.45579 -1.875724,-1.8747 -1.737592,-1.96007 0.266933,-0.16497 3.321027,-1.13596 5.084613,-1.61655 l 0.9084,-0.24756 1.757829,1.75683 c 1.517784,1.5169 1.783037,1.75364 1.94239,1.73357 0.130633,-0.0164 0.688391,-0.51279 1.909027,-1.69884 l 1.724473,-1.67561 0.534721,0.078 c 1.138998,0.16626 5.195314,1.53379 5.52379,1.86227 0.07627,0.0763 -0.735358,0.91066 -4.69735,4.82903 -2.634256,2.60526 -4.818583,4.73684 -4.854057,4.73684 -0.03549,0 -1.511948,-1.40647 -3.281058,-3.12548 z"
       id="path248" /><text
       xml:space="preserve"
       style="font-weight:bold;font-size:13.6337px;line-height:1.25;font-family:Helvetica;-inkscape-font-specification:'Helvetica Bold';fill:#d90d0f;fill-opacity:1;stroke-width:0.136337"
       x="74.153862"
       y="174.17542"
       id="text3366"><tspan
         sodipodi:role="line"
         style="fill:#d90d0f;fill-opacity:1;stroke-width:0.136337"
         x="74.153862"
         y="174.17542"
         id="tspan4144">PETROINDEPENDENCIA</tspan></text><rect
       style="opacity:0;fill:#d90d0f;fill-opacity:1;stroke:#2896f2;stroke-width:0.96827;paint-order:stroke markers fill;stop-color:#000000"
       id="rect16940"
       width="245.11423"
       height="103.2457"
       x="3.2301822"
       y="108.01765" /></g></svg>
